<svg xmlns="http://www.w3.org/2000/svg" version="1.1" xmlns:xlink="http://www.w3.org/1999/xlink" width="1000" height="1000"><style>
    #light-icon {
      display: inline;
    }
    #dark-icon {
      display: none;
    }

    @media (prefers-color-scheme: dark) {
      #light-icon {
        display: none;
      }
      #dark-icon {
        display: inline;
      }
    }
  </style><g id="light-icon"><svg xmlns="http://www.w3.org/2000/svg" version="1.1" xmlns:xlink="http://www.w3.org/1999/xlink" width="1000" height="1000"><g><g transform="matrix(10,0,0,10,0,0)"><svg xmlns="http://www.w3.org/2000/svg" version="1.1" xmlns:xlink="http://www.w3.org/1999/xlink" width="100" height="100"><svg xmlns="http://www.w3.org/2000/svg" viewBox="0 0 100 100">
  <g transform="translate(0,20)" stroke="black" fill="none">
    {/* Head */}
    <circle cx="50" cy="35" r="20" stroke-width="6"></circle>
    {/* Curly hair */}
    <circle cx="50" cy="12" r="6" stroke-width="11"></circle>
    <circle cx="40" cy="15" r="6" stroke-width="11"></circle>
    <circle cx="60" cy="15" r="6" stroke-width="11"></circle>
    <circle cx="33" cy="20" r="6" stroke-width="11"></circle>
    <circle cx="67" cy="20" r="6" stroke-width="11"></circle>
  </g>
</svg></svg></g></g></svg></g><g id="dark-icon"><svg xmlns="http://www.w3.org/2000/svg" version="1.1" xmlns:xlink="http://www.w3.org/1999/xlink" width="1000" height="1000"><g clip-path="url(#SvgjsClipPath1271)"><rect width="1000" height="1000" fill="#ffffff"></rect><g transform="matrix(7,0,0,7,150,150)"><svg xmlns="http://www.w3.org/2000/svg" version="1.1" xmlns:xlink="http://www.w3.org/1999/xlink" width="100" height="100"><svg xmlns="http://www.w3.org/2000/svg" viewBox="0 0 100 100">
  <g transform="translate(0,20)" stroke="black" fill="none">
    {/* Head */}
    <circle cx="50" cy="35" r="20" stroke-width="6"></circle>
    {/* Curly hair */}
    <circle cx="50" cy="12" r="6" stroke-width="11"></circle>
    <circle cx="40" cy="15" r="6" stroke-width="11"></circle>
    <circle cx="60" cy="15" r="6" stroke-width="11"></circle>
    <circle cx="33" cy="20" r="6" stroke-width="11"></circle>
    <circle cx="67" cy="20" r="6" stroke-width="11"></circle>
  </g>
</svg></svg></g></g><defs><clipPath id="SvgjsClipPath1271"><rect width="1000" height="1000" x="0" y="0" rx="350" ry="350"></rect></clipPath></defs></svg></g></svg>